<?xml version="1.0" encoding="utf-8"?>

<!DOCTYPE svg PUBLIC "-//W3C//DTD SVG 1.1//EN" "http://www.w3.org/Graphics/SVG/1.1/DTD/svg11.dtd">
<svg version="1.1" id="Layer_1" xmlns="http://www.w3.org/2000/svg" xmlns:xlink="http://www.w3.org/1999/xlink" x="0px" y="0px"
	 viewBox="0 0 1279.778 1668.178" enable-background="new 0 0 1279.778 1668.178" xml:space="preserve">
<g id="Red_Heart">
</g>
<g>
	<g>
		<path d="M451.127,150.491c-0.049-0.027-0.128-0.046-0.268-0.046C450.859,150.445,450.957,150.46,451.127,150.491z"/>
		<path d="M1140.403,1050.098c-24.453-46.237-47.945-90.017-61.236-114.712c49.475-41.424,79.474-117.31,81.083-222.39
			c1.296-84.436-15.875-158.15-15.875-158.15s-6.283-1.504-13.958-2.383c-5.823-20-14.884-47.511-27.031-81.68
			c2.615-1.086,4.284-1.269,4.284-1.269l-27.762-76.513c0,0-2.711-1.681-6.762-3.146C981.913,161.297,888.063,85.924,865.54,60.791
			c-23.698-26.453-45.695-23.705-72.149-26.453c-19.441-2.02-75.371,8.755-103.674,14.612c-5.233-3.567-9.55-4.752-9.55-4.752
			s-42.057,7.375-79.509,30.425c-20.887,12.849-11.989,50.928-6.457,61.072c5.531,10.137,14.408,22.125,33.764,17.512
			c19.364-4.606,70.291-36.526,78.591-47.589c1.691-8.65,1.997-16.026,1.477-22.475c33.029-6.916,103.206-20.49,117.812-14.23
			c16.217,6.948,111.168,72.963,213.398,340.737c-1.127,4.401-1.909,9.667-2.285,15.853l-1.88,0.75c0,0,5.866,14.231,11.631,36.605
			c26.76,103.94,11.284,213.954-111.742,254.993c-108.525,36.199-234.093-24.567-319.931-87.226
			c-20.267-14.793-32.07-25.215-32.07-25.215l-1.073,1.174l-2.572-2.925c0,0-5.688-5.099-12.998-6.851
			c-154.985-184.435-209.021-302.051-185.754-347.84c25.398-50.002,75.692-63.427,84.193-66.058
			c5.629,9.694,13.136,18.636,20.78,17.544c52.188-7.453,85.041-25.471,85.041-25.471s8.3,0.925,2.769-38.37
			c-5.532-39.295-34.69-41.139-34.69-41.139c-32.839,9.219-64.183,26.389-77.666,34.69c-8.227,5.061-9.488,12.869-8.394,20.622
			c-0.652-0.145-1.177-0.243-1.475-0.295c2.08,1.157-76.719,27.101-103.405,98.478c-22.084,59.074,69.823,254.398,318.42,519.268
			c-3.302,6.839-5.181,12.509-5.181,12.509c37.438,43.545,82.656,84.151,128.935,117.836
			c87.831,63.927,168.052,84.464,231.21,67.215c32.995,61.307,131.405,244.992,145.486,280.906
			c16.067,40.997,44.037,138.118-19.356,252.245c-31.039,55.882-135.441,91.868-218.403,54.444
			c-47.689-21.513-101.272-73.444-141.564-107.365c-277.111-233.31-346.833,21.691-470.556-52.174
			c-71.551-42.713-102.88-141.805-102.88-211.177c0-47.212,44.563-183.749,45.546-186.732c0,0-4.314-4.175-10.091-8.677
			l-35.254-12.625c-9.102-0.173-16.893,0.773-16.893,0.773c-17.22,52.202-48.842,155.723-48.842,207.262
			c0,80.428,34.953,207.839,134.822,267.451c91.156,54.423,166.315-5.823,249.134-32.383
			c139.833-44.841,250.865,141.805,369.626,195.388c108.547,48.97,252.296,8.301,302.654-82.364
			C1309.779,1341.276,1225.642,1211.245,1140.403,1050.098z"/>
	</g>
	<path enable-background="new    " d="M507.085,728.829c-13.612-53.003-56.42-86.568-115.312-92.933
		c-5.119-0.553-10.098-0.821-14.952-0.821c-51.193,0-87.617,29.895-108.441,70.754c-21.755-42.643-58.891-70.301-113.037-70.3
		c-3.583,0-7.245,0.121-10.978,0.367c-53.853,3.55-100.115,35.753-114.69,98.528c-26.218,112.922,97.88,228.355,238.704,340.651
		C418.144,963.541,534.987,837.476,507.085,728.829z"/>
</g>
</svg>
